<?xml version="1.0" standalone="no"?>
<!DOCTYPE svg PUBLIC "-//W3C//DTD SVG 20010904//EN"
 "http://www.w3.org/TR/2001/REC-SVG-20010904/DTD/svg10.dtd">
<svg version="1.0" xmlns="http://www.w3.org/2000/svg"
 width="700.000000pt" height="700.000000pt" viewBox="0 0 700.000000 700.000000"
 preserveAspectRatio="xMidYMid meet">
<metadata>
Created by potrace 1.14, written by Peter Selinger 2001-2017
</metadata>
<g transform="translate(0.000000,700.000000) scale(0.100000,-0.100000)"
fill="#000000" stroke="none">
<path d="M510 6248 c-19 -13 -43 -38 -54 -57 -19 -33 -19 -63 -19 -2251 0
-2163 0 -2218 19 -2256 11 -21 34 -47 54 -59 35 -20 49 -20 1110 -21 591 -1
1093 -4 1115 -8 243 -40 452 -198 553 -418 32 -71 62 -195 62 -262 1 -117 57
-186 150 -186 55 0 103 27 126 72 11 20 20 71 25 129 25 321 248 579 567 656
59 14 191 16 1152 17 1212 2 1124 -4 1171 72 l22 37 0 2222 c0 2192 0 2223
-19 2256 -11 19 -35 44 -54 57 l-33 22 -961 -1 c-1046 -1 -1030 -1 -1218 -59
-127 -40 -225 -86 -337 -160 -153 -101 -324 -280 -408 -429 -15 -28 -31 -51
-34 -51 -3 0 -18 23 -33 51 -75 137 -253 328 -393 421 -123 82 -326 173 -433
193 -40 7 -73 15 -100 22 -14 4 -468 9 -1010 10 l-986 4 -34 -23z m2060 -295
c158 -45 257 -93 375 -180 201 -150 323 -342 392 -618 4 -16 9 -824 10 -1794
l3 -1765 -27 25 c-15 13 -33 30 -41 37 -83 76 -297 185 -403 206 -13 2 -46 10
-74 17 -38 9 -294 13 -1055 15 -553 1 -1008 2 -1012 3 -5 1 -8 919 -8 2042 l0
2040 883 -4 c861 -3 884 -4 957 -24z m3698 -2015 l-3 -2042 -1005 -2 c-553 -1
-1015 -4 -1026 -7 -12 -3 -39 -8 -59 -11 -68 -11 -218 -66 -294 -108 -41 -23
-110 -70 -153 -105 l-78 -63 0 1743 c1 1667 1 1746 19 1827 77 348 312 620
642 743 173 65 173 65 1112 66 l847 1 -2 -2042z"/>
</g>
</svg>
